<svg xmlns="http://www.w3.org/2000/svg" width="960" height="420" viewBox="0 0 960 420" role="img" aria-labelledby="title desc">
  <title id="title">Before and after a chaining rewrite</title>
  <desc id="desc">The original pipeline maps a discharge summary directly to treatments. The rewritten pipeline first identifies new conditions, then extracts treatments using both the summary and the new conditions.</desc>
  <defs>
    <marker id="arrow" viewBox="0 0 10 10" refX="9" refY="5" markerWidth="7" markerHeight="7" orient="auto-start-reverse">
      <path d="M 0 0 L 10 5 L 0 10 z" fill="#475569"/>
    </marker>
    <style>
      .heading { font: 600 18px Inter, Arial, sans-serif; fill: #0f172a; }
      .text { font: 500 15px Inter, Arial, sans-serif; fill: #0f172a; text-anchor: middle; }
      .code-label { font: 500 13px Inter, Arial, sans-serif; fill: #0f172a; text-anchor: middle; }
      .detail { font: 400 13px Inter, Arial, sans-serif; fill: #334155; text-anchor: middle; }
      .edge-label { font: 500 12px Inter, Arial, sans-serif; fill: #475569; text-anchor: middle; }
      .node { fill: #f8fafc; stroke: #64748b; stroke-width: 2; }
      .operation { fill: #e0f2fe; stroke: #0284c7; stroke-width: 2; }
      .intermediate { fill: #fef3c7; stroke: #d97706; stroke-width: 2; }
      .output { fill: #dcfce7; stroke: #16a34a; stroke-width: 2; }
      .arrow { fill: none; stroke: #475569; stroke-width: 2; marker-end: url(#arrow); }
      .reused { fill: none; stroke: #64748b; stroke-width: 1.75; stroke-dasharray: 6 5; marker-end: url(#arrow); }
    </style>
  </defs>

  <rect width="960" height="420" rx="16" fill="#ffffff"/>

  <text class="heading" x="30" y="38">Before: one complex map</text>
  <rect class="node" x="40" y="70" width="150" height="64" rx="10"/>
  <text class="text" x="115" y="108">summary</text>
  <path class="arrow" d="M 190 102 L 285 102"/>
  <rect class="operation" x="285" y="62" width="380" height="80" rx="10"/>
  <text class="text" x="475" y="91">extract_new_treatments</text>
  <text class="detail" x="475" y="116">identify new diagnoses and associate treatments</text>
  <path class="arrow" d="M 665 102 L 765 102"/>
  <rect class="output" x="765" y="70" width="155" height="64" rx="10"/>
  <text class="text" x="842.5" y="108">treatments</text>

  <line x1="30" y1="188" x2="930" y2="188" stroke="#cbd5e1" stroke-width="2"/>

  <text class="heading" x="30" y="228">After: chaining rewrite</text>
  <rect class="node" x="20" y="270" width="120" height="64" rx="10"/>
  <text class="text" x="80" y="308">summary</text>
  <path class="arrow" d="M 140 302 L 190 302"/>
  <rect class="operation" x="190" y="270" width="190" height="64" rx="10"/>
  <text class="code-label" x="285" y="307">identify_new_conditions</text>
  <path class="arrow" d="M 380 302 L 425 302"/>
  <rect class="intermediate" x="425" y="270" width="165" height="64" rx="10"/>
  <text class="code-label" x="507.5" y="307">new_conditions</text>
  <path class="arrow" d="M 590 302 L 625 302"/>
  <rect class="operation" x="625" y="270" width="175" height="64" rx="10"/>
  <text class="code-label" x="712.5" y="307">extract_treatments</text>
  <path class="arrow" d="M 800 302 L 825 302"/>
  <rect class="output" x="825" y="270" width="115" height="64" rx="10"/>
  <text class="text" x="882.5" y="308">treatments</text>

  <path class="reused" d="M 80 334 C 80 390, 650 390, 690 334"/>
  <rect x="258" y="365" width="270" height="23" rx="4" fill="#ffffff"/>
  <text class="edge-label" x="386" y="382">summary is also available to the second map</text>
</svg>
